<svg width="375" height="811" viewBox="0 0 375 811" fill="none" xmlns="http://www.w3.org/2000/svg">
<path d="M-63.0127 16.3754C-40.171 -36.3239 12.8078 -70.2208 63.6412 -76.3019C114.475 -82.383 163.627 -60.23 211.296 -23.7743C258.731 12.8105 304.916 63.569 309.493 120.385C314.19 176.798 277.278 239.269 230.491 272.79C183.938 306.183 127.508 310.626 75.2788 295.561C23.1643 280.771 -24.5162 246.345 -51.6548 193.525C-79.0276 140.835 -85.8544 69.0748 -63.0127 16.3754Z" fill="#BA5A31" fill-opacity="0.55"/>
<path d="M144.303 653.599C195.231 631.561 261.584 640.177 327.241 675.519C393.187 711.198 458.098 773.869 455.592 832.983C453.086 892.097 382.511 947.885 303.519 979.892C224.553 1011.6 137.146 1019.82 89.0373 982.78C40.6156 945.705 32.146 863.133 45.4799 795.784C58.5261 728.099 93.6892 675.673 144.303 653.599Z" fill="#788475" fill-opacity="0.55"/>
</svg>
